<svg width="100%" height="100%" id="svg" viewBox="0 0 1440 400" xmlns="http://www.w3.org/2000/svg" class="transition duration-300 ease-in-out delay-150">
    <defs>
        <linearGradient id="gradient" x1="50%" y1="100%" x2="50%" y2="0%">
            <stop offset="5%" stop-color="#ff690088"></stop>
            <stop offset="95%" stop-color="#eb144c88"></stop>
        </linearGradient>
    </defs>
    <path d="M 0,400 C 0,400 0,133 0,133 C 59.83236001374098,148.0058399175541 119.66472002748196,163.0116798351082 189,152 C 258.33527997251804,140.9883201648918 337.17347990381313,103.95912057712128 403,101 C 468.82652009618687,98.04087942287872 521.6413603572656,129.15183785640673 584,132 C 646.3586396427344,134.84816214359327 718.2610786671246,109.43352799725182 802,106 C 885.7389213328754,102.56647200274818 981.3143249742359,121.11405015458607 1048,141 C 1114.685675025764,160.88594984541393 1152.4816214359325,182.110271384404 1213,181 C 1273.5183785640675,179.889728615596 1356.7591892820337,156.444864307798 1440,133 C 1440,133 1440,400 1440,400 Z" stroke="none" stroke-width="0" fill="url(#gradient)" class="transition-all duration-300 ease-in-out delay-150 path-0"></path>
    <defs>
        <linearGradient id="gradient" x1="50%" y1="100%" x2="50%" y2="0%">
            <stop offset="5%" stop-color="#ff6900ff"></stop>
            <stop offset="95%" stop-color="#eb144cff"></stop>
        </linearGradient>
    </defs>
    <path d="M 0,400 C 0,400 0,266 0,266 C 57.57883888698042,278.75163174166954 115.15767777396084,291.5032634833391 184,285 C 252.84232222603916,278.4967365166609 332.948127791137,252.73857780831327 412,252 C 491.051872208863,251.26142219168673 569.049811061491,275.54242528340785 627,287 C 684.950188938509,298.45757471659215 722.8526279628992,297.0917210580556 787,290 C 851.1473720371008,282.9082789419444 941.539677086912,270.0906904843697 1015,257 C 1088.460322913088,243.90930951563033 1144.9886636894537,230.5455170044658 1213,232 C 1281.0113363105463,233.4544829955342 1360.5056681552733,249.7272414977671 1440,266 C 1440,266 1440,400 1440,400 Z" stroke="none" stroke-width="0" fill="url(#gradient)" class="transition-all duration-300 ease-in-out delay-150 path-1"></path>
</svg>